# xmcd
#
# Track frame offsets: 
#        150
#        17411
#        36475
#        53472
#        85152
#        103655
#        127749
#        159428
#        174820
#        194301
#        213810
#        236721
#        266740
#        290790
#        306750
#
# Disc length: 4423 seconds
#
# Revision: 0
# Processed by: cddbd v1.5.2PL0 Copyright (c) Steve Scherf et al.
# Submitted via: ExactAudioCopyFreeDBPlugin 1.0
#
DISCID=c111450f
DTITLE=George Benson - The George Benson Collection
DYEAR=1900
DGENRE=
TTITLE0=Turn your love around
TTITLE1=Love al the hurt away
TTITLE2=Give me the night
TTITLE3=Cast your fate to the wind
TTITLE4=Never give up on a good thing
TTITLE5=On Broadway
TTITLE6=White Rabbit
TTITLE7=This Masquerade
TTITLE8=Love Ballad
TTITLE9=Nature Boy
TTITLE10=Last train to Clarksville
TTITLE11=Livin’ inside your love
TTITLE12=Breezin’
TTITLE13=Moodys' mood
TTITLE14=The greatest love of all
EXTD=
EXTT0=
EXTT1=
EXTT2=
EXTT3=
EXTT4=
EXTT5=
EXTT6=
EXTT7=
EXTT8=
EXTT9=
EXTT10=
EXTT11=
EXTT12=
EXTT13=
EXTT14=
PLAYORDER=
